# AST/ASF file generated using VICON BodyLanguage
# -----------------------------------------------
:version 1.10
:name VICON
:units
  mass 1.0
  length 0.45
  angle deg
:documentation
   .ast/.asf automatically generated from VICON data using
   VICON BodyBuilder and BodyLanguage model FoxedUp or BRILLIANT.MOD
:root
   order TX TY TZ RX RY RZ
   axis XYZ
   position 0 0 0  
   orientation 0 0 0 
:bonedata
  begin
     id 1 
     name lhipjoint
     direction 0.627457 -0.725269 0.283342 
     length 2.53237 
     axis 0 0 0  XYZ
  end
  begin
     id 2 
     name lfemur
     direction 0.34202 -0.939693 0  
     length 7.32496  
     axis 0 0 20  XYZ
    dof rx ry rz
    limits (-160.0 20.0)
           (-70.0 70.0)
           (-60.0 70.0)
  end
  begin
     id 3 
     name ltibia
     direction 0.34202 -0.939693 0   
     length 7.69674   
     axis 0 0 20   XYZ
    dof rx
    limits (-10.0 170.0)
  end
  begin
     id 4 
     name lfoot
     direction 0.127289 -0.349722 0.928166   
     length 1.8612   
     axis -90 7.62852e-016 20   XYZ
    dof rx rz
    limits (-45.0 90.0)
           (-70.0 20.0)
  end
  begin
     id 5 
     name ltoes
     direction 1.53561e-011 -4.21864e-011 1   
     length 0.925608   
     axis -90 7.62852e-016 20   XYZ
    dof rx
    limits (-90.0 20.0)
  end
  begin
     id 6 
     name rhipjoint
     direction -0.609094 -0.738725 0.288599   
     length 2.48624  
     axis 0 0 0  XYZ 
  end
  begin
     id 7 
     name rfemur
     direction -0.34202 -0.939693 0   
     length 7.44259   
     axis 0 0 -20   XYZ
    dof rx ry rz
    limits (-160.0 20.0)
           (-70.0 70.0)
           (-70.0 60.0)
  end
  begin
     id 8 
     name rtibia
     direction -0.34202 -0.939693 0   
     length 7.7781   
     axis 0 0 -20   XYZ
    dof rx
    limits (-10.0 170.0)
 end
 begin
     id 9 
     name rfoot
     direction -0.107015 -0.294021 0.949789   
     length 2.14741  
     axis -90 -7.62852e-016 -20   XYZ
    dof rx rz
    limits (-45.0 90.0)
           (-20.0 70.0)
  end
  begin
     id 10 
     name rtoes
     direction -1.53497e-011 -4.21924e-011 1   
     length 1.0706   
     axis -90 -7.62852e-016 -20   XYZ
    dof rx
    limits (-90.0 20.0)
  end
  begin
     id 11 
     name lowerback
     direction -0.0142066 0.998112 -0.0597545   
     length 1.86627   
     axis 0 0 0   XYZ
    dof rx ry rz
    limits (-20.0 45.0)
           (-30.0 30.0)
           (-30.0 30.0)
  end
  begin
     id 12 
     name upperback
     direction 0.00547294 0.999744 0.0219437   
     length 1.86272   
     axis 0 0 0   XYZ
    dof rx ry rz
    limits (-20.0 45.0)
           (-30.0 30.0)
           (-30.0 30.0)
  end
  begin
     id 13 
     name thorax
     direction 0.0116162 0.998704 0.0495538   
     length 1.8703   
     axis 0 0 0   XYZ
    dof rx ry rz
    limits (-20.0 45.0)
           (-30.0 30.0)
           (-30.0 30.0)
  end
  begin
     id 14 
     name lowerneck
     direction -0.0106574 0.998739 0.0490586   
     length 1.8074   
     axis 0 0 0   XYZ
    dof rx ry rz
    limits (-20.0 45.0)
           (-30.0 30.0)
           (-30.0 30.0)
  end
  begin
     id 15 
     name upperneck
     direction 0.030527 0.976587 -0.212944   
     length 1.80681   
     axis 0 0 0   XYZ
    dof rx ry rz
    limits (-20.0 45.0)
           (-30.0 30.0)
           (-30.0 30.0)
  end
  begin
     id 16
     name head
     direction 0.00869225 0.997035 -0.0764531  
     length 1.8313  
     axis 0 0 0   XYZ
    dof rx ry rz
    limits (-20.0 45.0)
           (-30.0 30.0)
           (-30.0 30.0)
  end
  begin
     id 17 
     name lclavicle
     direction 0.915958 0.399447 0.0382386  
     length 3.78965  
     axis 0 0 0   XYZ
    dof ry rz
    limits (-20.0 10.0)
           (0.0 20.0)
  end
  begin
     id 18 
     name lhumerus
     direction 1 -4.48967e-011 3.19303e-027   
     length 4.78095   
     axis -180 -30 -90   XYZ
    dof rx ry rz
    limits (-60.0 90.0)
           (-90.0 90.0)
           (-90.0 90.0)
  end
  begin
     id 19
     name lradius
     direction 1 -4.48967e-011 -3.77974e-027   
     length 3.58615   
     axis -180 -30 -90   XYZ
    dof rx
    limits (-10.0 170.0)
  end
  begin
     id 20
     name lwrist
     direction 1 -4.48927e-011 1.2807e-027   
     length 1.79307   
     axis 1.91374e-015 90 90   XYZ
    dof ry
    limits (-180.0 0.0)
 end
  begin
     id 21 
     name lhand
     direction 1 -4.49036e-011 2.5614e-027   
     length 0.659812   
     axis -1.63439e-015 90 90   XYZ
    dof rx rz
    limits (-90.0 90.0)
           (-45.0 45.0)
  end
  begin
     id 22 
     name lfingers
     direction 1 -4.49052e-011 5.1228e-027   
     length 0.531957   
     axis -3.26879e-015 90 90   XYZ
    dof rx
    limits (0.0 90.0)
  end
  begin
     id 23
     name lthumb
     direction 0.707107 -6.35012e-011 0.707107   
     length 0.763787   
     axis -90 45 2.85299e-015   XYZ
    dof rx rz
    limits (-45.0 45.0)
           (-45.0 45.0)
  end
  begin
     id 24 
     name rclavicle
     direction -0.895351 0.435135 0.0948887   
     length 3.70497  
     axis 0 0 0   XYZ 
    dof ry rz
    limits (-10.0 20.0)
           (-20.0 0.0)
  end
  begin
     id 25 
     name rhumerus
     direction -1 -4.48971e-011 2.38946e-027  
     length 4.48913   
     axis -180 30 90   XYZ
    dof rx ry rz
    limits (-90.0 60.0)
           (-90.0 90.0)
           (-90.0 90.0)
  end
  begin
     id 26 
     name rradius
     direction -1 -4.4895e-011 4.38668e-027   
     length 3.7051   
     axis -180 30 90   XYZ
    dof rx
    limits (-10.0 170.0)
  end
  begin
     id 27 
     name rwrist
     direction -1 -4.49007e-011 1.2807e-027   
     length 1.85255   
     axis 1.91374e-015 -90 -90   XYZ
    dof ry
    limits (-180.0 0.0)
  end
  begin
     id 28
     name rhand
     direction -1 -4.48851e-011 2.5614e-027   
     length 0.449136   
     axis -1.63439e-015 -90 -90   XYZ
    dof rx rz
    limits (-90.0 90.0)
           (-45.0 45.0)
  end
  begin
     id 29
     name rfingers
     direction -1 -4.49128e-011 5.1228e-027   
     length 0.362105   
     axis -3.26879e-015 -90 -90   XYZ
    dof rx
    limits (0.0 90.0)
  end
  begin
     id 30
     name rthumb
     direction -0.707107 -6.34851e-011 0.707107   
     length 0.519912   
     axis -90 -45 -2.85299e-015   XYZ
    dof rx rz
    limits (-45.0 45.0)
           (-45.0 45.0)
  end
:hierarchy
  begin
    root lhipjoint rhipjoint lowerback
    lhipjoint lfemur
    lfemur ltibia
    ltibia lfoot
    lfoot ltoes
    rhipjoint rfemur
    rfemur rtibia
    rtibia rfoot
    rfoot rtoes
    lowerback upperback
    upperback thorax
    thorax lowerneck lclavicle rclavicle
    lowerneck upperneck
    upperneck head
    lclavicle lhumerus
    lhumerus lradius
    lradius lwrist
    lwrist lhand lthumb
    lhand lfingers
    rclavicle rhumerus
    rhumerus rradius
    rradius rwrist
    rwrist rhand rthumb
    rhand rfingers
  end

#!OML:ASF I:\Actors\actors\Patient Classification 2\Patient 1\Session 1\actor1.ASF
:FULLY-SPECIFIED
:DEGREES
69
root -0.693089 18.7752 5.13616 4.37505 -2.15519 -1.73707
lowerback 6.79614 1.50248 -2.06504
upperback 2.64387 1.86789 0.309339
thorax -1.15825 0.921506 1.3326
lowerneck -14.8407 -3.11003 -4.3344
upperneck 33.2819 -4.65619 3.98045
head 14.023 -2.02309 1.60449
rclavicle 6.55989e-015 1.98785e-016
rhumerus -1.33833 50.2844 -63.1633
rradius 76.0701
rwrist 32.0832
rhand -40.5542 -35.1989
rfingers 7.12502
rthumb -13.502 -64.7412
lclavicle 6.55989e-015 1.98785e-016
lhumerus 13.4335 -54.4341 53.8391
lradius 73.3946
lwrist 0.478006
lhand -24.785 -67.3752
lfingers 7.12502
lthumb 1.71918 -37.4024
rfemur 0 0 0
rtibia 0
rfoot 0 0
rtoes 0
lfemur -8.76253 -7.2212 -12.0702
ltibia 21.4469
lfoot -23.2489 16.8477
ltoes -53.9213
70
root -0.691483 18.7779 5.12584 4.51199 -2.38371 -1.70397
lowerback 6.49151 1.48472 -2.38557
upperback 2.98083 1.83685 0.441538
thorax -0.654755 0.895049 1.66371
lowerneck -15.2152 -3.0295 -4.32932
upperneck 33.0583 -4.4641 3.83258
head 13.9914 -1.9554 1.56844
rclavicle -1.34677e-014 -2.18663e-015
rhumerus -0.425427 49.3871 -63.9264
rradius 74.7464
rwrist 33.1353
rhand -41.0125 -35.9714
rfingers 7.12502
rthumb -13.9437 -65.4838
lclavicle -1.34677e-014 -2.18663e-015
lhumerus 12.6105 -53.0644 56.2421
lradius 72.163
lwrist -0.0908519
lhand -26.0768 -69.2141
lfingers 7.12502
lthumb 0.471537 -39.2349
rfemur 0 0 0
rtibia 0
rfoot 0 0
rtoes 0
lfemur -8.87539 -7.23647 -12.1177
ltibia 21.4156
lfoot -23.2884 17.0235
ltoes -53.8368
71
root -0.689627 18.7787 5.11663 4.63123 -2.60655 -1.70023
lowerback 6.95343 1.5791 -2.21868
upperback 2.8373 1.95715 0.315655
thorax -1.05468 0.962295 1.41707
lowerneck -15.2011 -3.02675 -4.25722
upperneck 33.025 -4.48599 3.84808
head 13.973 -1.95389 1.55824
rclavicle -1.25234e-014 7.55382e-015
rhumerus -1.25018 48.2836 -66.1819
rradius 73.6017
rwrist 34.3021
rhand -41.6112 -37.1061
rfingers 7.12502
rthumb -14.5206 -66.578
lclavicle -1.25234e-014 7.55382e-015
lhumerus 11.1172 -52.3743 59.0298
lradius 71.294
lwrist -0.0480144
lhand -26.5815 -70.3318
lfingers 7.12502
lthumb -0.0158746 -40.3521
rfemur 0 0 0
rtibia 0
rfoot 0 0
rtoes 0
lfemur -8.99192 -7.14141 -12.1469
ltibia 21.3959
lfoot -23.1545 17.3016
ltoes -53.9633
72
root -0.686953 18.7799 5.1074 4.77216 -2.74213 -1.71408
lowerback 7.02296 1.58331 -2.21212
upperback 2.93844 1.96194 0.308785
thorax -0.988718 0.963048 1.40576
lowerneck -15.3771 -2.96187 -4.17491
upperneck 32.8408 -4.38843 3.81017
head 13.9214 -1.90496 1.5405
rclavicle 7.20594e-015 -5.96354e-015
rhumerus -1.48517 46.9463 -67.9834
rradius 72.7856
rwrist 33.8606
rhand -42.41 -34.5837
rfingers 7.12502
rthumb -15.2901 -63.9986
lclavicle 7.20594e-015 -5.96354e-015
lhumerus 9.81346 -51.2121 61.7604
lradius 70.6091
lwrist 0.243276
lhand -26.9325 -70.9833
lfingers 7.12502
lthumb -0.354847 -41.0039
rfemur 0 0 0
rtibia 0
rfoot 0 0
rtoes 0
lfemur -9.18447 -6.96189 -12.1562
ltibia 21.388
lfoot -22.8286 17.6579
ltoes -53.9663
73
root -0.68205 18.7822 5.09955 4.90024 -2.81457 -1.74105
lowerback 6.89665 1.53181 -2.30374
upperback 3.16797 1.89389 0.384212
thorax -0.684673 0.922633 1.54719
lowerneck -15.6364 -2.86889 -4.09739
upperneck 32.5976 -4.22713 3.72431
head 13.8581 -1.83488 1.51342
rclavicle 1.55052e-014 -2.78299e-015
rhumerus -1.3476 45.5593 -69.3432
rradius 72.0295
rwrist 34.8958
rhand -42.7653 -31.9483
rfingers 7.12502
rthumb -15.6323 -61.3367
lclavicle 1.55052e-014 -2.78299e-015
lhumerus 8.6945 -49.6261 64.4676
lradius 69.9341
lwrist 0.183982
lhand -27.0653 -72.2379
lfingers 7.12502
lthumb -0.483149 -42.2587
rfemur 0 0 0
rtibia 0
rfoot 0 0
rtoes 0
lfemur -9.3636 -6.85996 -12.1395
ltibia 21.3947
lfoot -22.6345 17.8209
ltoes -54.3271
74
root -0.677922 18.7856 5.09492 4.99201 -2.87507 -1.72805
lowerback 7.04968 1.53167 -2.32073
upperback 3.21996 1.88887 0.379582
thorax -0.715892 0.919743 1.54919
lowerneck -15.7551 -2.83431 -4.02236
upperneck 32.4543 -4.19026 3.72486
head 13.8173 -1.80857 1.50372
rclavicle -3.85642e-014 1.03368e-014
rhumerus -1.77879 45.2664 -70.8322
rradius 71.655
rwrist 34.3292
rhand -42.8321 -34.1352
rfingers 7.12502
rthumb -15.6967 -63.5186
lclavicle -3.85642e-014 1.03368e-014
lhumerus 7.37155 -48.1673 67.2873
lradius 69.3537
lwrist -0.077916
lhand -27.1104 -74.0629
lfingers 7.12502
lthumb -0.526735 -44.0838
rfemur 0 0 0
rtibia 0
rfoot 0 0
rtoes 0
lfemur -9.46752 -6.89027 -12.1441
ltibia 21.4165
lfoot -22.7985 17.7358
ltoes -54.0167
75
root -0.675441 18.7899 5.09347 5.06872 -2.90101 -1.68459
lowerback 7.41357 1.55408 -2.2411
upperback 3.10647 1.91189 0.28881
thorax -1.02977 0.93657 1.39789
lowerneck -15.8112 -2.8558 -3.89987
upperneck 32.506 -4.27039 3.7523
head 13.854 -1.82346 1.48013
rclavicle 1.54058e-014 -1.19271e-014
rhumerus -2.34781 43.961 -72.4062
rradius 71.0356
rwrist 35.9812
rhand -42.8863 -33.1615
rfingers 7.12502
rthumb -15.7489 -62.5407
lclavicle 1.54058e-014 -1.19271e-014
lhumerus 5.80785 -46.9876 70.1119
lradius 68.9015
lwrist -0.229093
lhand -27.5434 -75.2383
lfingers 7.12502
lthumb -0.944891 -45.2607
rfemur 0 0 0
rtibia 0
rfoot 0 0
rtoes 0
lfemur -9.53697 -6.94845 -12.1615
ltibia 21.4454
lfoot -23.1513 17.476
ltoes -53.9898
76
root -0.672054 18.7934 5.09417 5.15299 -2.88692 -1.66592
lowerback 7.48243 1.52034 -2.24364
upperback 3.12616 1.86545 0.298993
thorax -1.04603 0.913282 1.41226
lowerneck -16.0193 -2.85962 -3.8595
upperneck 32.6137 -4.26261 3.68233
head 13.9441 -1.82152 1.44537
rclavicle -1.88845e-015 1.39149e-015
rhumerus -2.67712 43.8126 -73.4704
rradius 70.5898
rwrist 36.9539
rhand -42.703 -37.5744
rfingers 7.12502
rthumb -15.5723 -66.9675
lclavicle -1.88845e-015 1.39149e-015
lhumerus 4.54033 -45.5578 72.7158
lradius 68.3999
lwrist -0.305048
lhand -27.9444 -75.8587
lfingers 7.12502
lthumb -1.33221 -45.8831
rfemur 0 0 0
rtibia 0
rfoot 0 0
rtoes 0
lfemur -9.63371 -6.94762 -12.1614
ltibia 21.4778
lfoot -23.3113 17.2954
ltoes -53.8004
